<?xml version="1.0" encoding="utf-8"?>
<!-- Generator: Adobe Illustrator 17.0.0, SVG Export Plug-In . SVG Version: 6.00 Build 0)  -->
<!DOCTYPE svg PUBLIC "-//W3C//DTD SVG 1.1//EN" "http://www.w3.org/Graphics/SVG/1.1/DTD/svg11.dtd">
<svg version="1.1" id="Layer_1" xmlns="http://www.w3.org/2000/svg" xmlns:xlink="http://www.w3.org/1999/xlink" x="0px" y="0px"
	 width="126.667px" height="83.333px" viewBox="0 0 126.667 83.333" enable-background="new 0 0 126.667 83.333"
	 xml:space="preserve">
<g>
	<path fill="#5D5D5D" d="M60.573,22.46c0.447,0,0.824-0.176,1.115-0.509c0.458-0.521,0.66-1.376,0.541-2.285
		c-0.214-1.625-1.373-2.974-2.585-3.01l-0.049-0.001c-0.429,0-0.811,0.176-1.103,0.509c-0.452,0.515-0.642,1.33-0.523,2.236
		c0.212,1.623,1.396,3.025,2.582,3.061H60.573z"/>
	<path fill="#5D5D5D" d="M61.895,27.354c-0.119-0.081-0.243-0.165-0.37-0.253c-0.374-0.114-0.77-0.175-1.176-0.18h-0.051
		c-1.866,0-3.503,1.131-3.503,2.42c0,1.401,1.401,2.5,3.192,2.5c2.361,0,3.558-0.813,3.558-2.419c0-0.152-0.019-0.309-0.055-0.466
		C63.331,28.332,62.759,27.943,61.895,27.354z"/>
	<path fill="#5D5D5D" d="M63.832,6.255c-9.665,0-17.5,7.834-17.5,17.499c0,9.665,7.835,17.5,17.5,17.5c9.664,0,17.5-7.835,17.5-17.5
		C81.331,14.089,73.496,6.255,63.832,6.255z M62.24,33.276c-0.698,0.201-1.451,0.304-2.242,0.304c-0.879,0-1.727-0.101-2.515-0.301
		c-1.528-0.385-2.659-1.117-3.185-2.058c-0.227-0.407-0.343-0.841-0.343-1.291c0-0.464,0.112-0.933,0.33-1.397
		c0.838-1.784,3.044-2.983,5.488-2.983c0.025,0,0.048,0,0.071-0.001c-0.199-0.349-0.296-0.711-0.296-1.092
		c0-0.191,0.025-0.384,0.075-0.579c-2.564-0.06-4.482-1.936-4.482-4.411c0-1.748,1.397-3.45,3.394-4.139
		c0.598-0.206,1.208-0.312,1.808-0.312h5.481c0.187,0,0.351,0.121,0.41,0.298c0.059,0.178-0.006,0.373-0.158,0.482l-1.225,0.887
		c-0.074,0.053-0.162,0.082-0.254,0.082h-0.439c0.567,0.679,0.899,1.646,0.899,2.735c0,1.201-0.608,2.337-1.713,3.202
		c-0.854,0.665-0.888,0.847-0.888,1.228c0.011,0.209,0.607,0.89,1.262,1.353c1.53,1.082,2.098,2.142,2.098,3.914
		C65.817,31.045,64.413,32.645,62.24,33.276z M74.621,23.873c0,0.238-0.194,0.431-0.432,0.431h-3.115v3.116
		c0,0.238-0.193,0.431-0.431,0.431h-0.887c-0.239,0-0.432-0.193-0.432-0.431v-3.116h-3.116c-0.237,0-0.43-0.193-0.43-0.431v-0.888
		c0-0.237,0.194-0.432,0.43-0.432h3.116v-3.115c0-0.239,0.193-0.432,0.432-0.432h0.887c0.238,0,0.431,0.193,0.431,0.432v3.115h3.115
		c0.237,0,0.432,0.194,0.432,0.432V23.873z"/>
</g>
<path fill="#515151" d="M23.399,6.255c-9.665,0-17.5,7.837-17.5,17.5c0,9.665,7.835,17.499,17.5,17.499s17.5-7.834,17.5-17.499
	C40.899,14.092,33.064,6.255,23.399,6.255z M28.031,23.682h-3.03c0,4.843,0,10.807,0,10.807h-4.492c0,0,0-5.903,0-10.807h-2.135
	v-3.816h2.135v-2.472c0-1.77,0.84-4.532,4.533-4.532l3.326,0.013v3.706c0,0-2.022,0-2.415,0c-0.393,0-0.951,0.197-0.951,1.038v2.247
	h3.423L28.031,23.682z"/>
<path fill="#5D5D5D" d="M105.14,6.254c-9.666,0-17.5,7.835-17.5,17.5c0,9.666,7.835,17.5,17.5,17.5s17.5-7.834,17.5-17.5
	C122.639,14.09,114.805,6.254,105.14,6.254z M111.241,33.436c-0.941,0.441-1.794,0.754-2.557,0.933
	c-0.764,0.179-1.589,0.268-2.476,0.268c-1.008,0-1.602-0.126-2.376-0.379c-0.774-0.255-1.434-0.62-1.98-1.088
	c-0.548-0.472-0.926-0.974-1.138-1.503c-0.211-0.53-0.316-1.299-0.316-2.308v-7.727h-2.993v-3.12
	c0.865-0.28,1.869-0.684,2.485-1.209c0.62-0.526,1.114-1.156,1.487-1.893c0.374-0.734,0.632-1.67,0.772-2.808h3.134v5.098h5.094
	v3.932h-5.094v5.651c0,1.278-0.017,2.015,0.119,2.376c0.135,0.361,0.472,0.736,0.84,0.952c0.488,0.291,1.044,0.439,1.672,0.439
	c1.116,0,2.225-0.364,3.329-1.088V33.436z"/>
<g>
	<path fill="#FF3E28" d="M60.893,61.46c0.447,0,0.824-0.176,1.115-0.509c0.458-0.521,0.66-1.376,0.541-2.285
		c-0.214-1.625-1.373-2.974-2.585-3.01l-0.049-0.001c-0.429,0-0.811,0.176-1.103,0.509c-0.452,0.515-0.642,1.33-0.523,2.236
		c0.212,1.623,1.396,3.025,2.582,3.061H60.893z"/>
	<path fill="#FF3E28" d="M62.215,66.354c-0.119-0.081-0.243-0.165-0.37-0.253c-0.374-0.114-0.77-0.175-1.176-0.18h-0.051
		c-1.866,0-3.503,1.131-3.503,2.42c0,1.401,1.401,2.5,3.192,2.5c2.361,0,3.558-0.813,3.558-2.419c0-0.152-0.019-0.309-0.055-0.466
		C63.65,67.332,63.079,66.943,62.215,66.354z"/>
	<path fill="#FF3E28" d="M64.151,45.255c-9.665,0-17.5,7.834-17.5,17.499c0,9.665,7.835,17.5,17.5,17.5
		c9.664,0,17.5-7.835,17.5-17.5C81.651,53.089,73.815,45.255,64.151,45.255z M62.559,72.276c-0.698,0.201-1.451,0.304-2.242,0.304
		c-0.879,0-1.727-0.101-2.515-0.301c-1.528-0.385-2.659-1.117-3.185-2.058c-0.227-0.407-0.343-0.841-0.343-1.291
		c0-0.464,0.112-0.933,0.33-1.397c0.838-1.784,3.044-2.983,5.488-2.983c0.025,0,0.048,0,0.071-0.001
		c-0.199-0.349-0.296-0.711-0.296-1.092c0-0.191,0.025-0.384,0.075-0.579c-2.564-0.06-4.482-1.936-4.482-4.411
		c0-1.748,1.397-3.45,3.394-4.139c0.598-0.206,1.208-0.312,1.808-0.312h5.481c0.187,0,0.351,0.121,0.41,0.298
		c0.059,0.178-0.006,0.373-0.158,0.482l-1.225,0.887c-0.074,0.053-0.162,0.082-0.254,0.082h-0.439
		c0.567,0.679,0.899,1.646,0.899,2.735c0,1.201-0.608,2.337-1.713,3.202c-0.854,0.665-0.888,0.847-0.888,1.228
		c0.011,0.209,0.607,0.89,1.262,1.353c1.53,1.082,2.098,2.142,2.098,3.914C66.136,70.045,64.732,71.645,62.559,72.276z
		 M74.941,62.873c0,0.238-0.194,0.431-0.432,0.431h-3.115v3.116c0,0.238-0.193,0.431-0.431,0.431h-0.887
		c-0.239,0-0.432-0.193-0.432-0.431v-3.116h-3.116c-0.237,0-0.43-0.193-0.43-0.431v-0.888c0-0.237,0.194-0.432,0.43-0.432h3.116
		v-3.115c0-0.239,0.193-0.432,0.432-0.432h0.887c0.238,0,0.431,0.193,0.431,0.432v3.115h3.115c0.237,0,0.432,0.194,0.432,0.432
		V62.873z"/>
</g>
<path fill="#315D99" d="M23.718,45.255c-9.665,0-17.5,7.837-17.5,17.5c0,9.665,7.835,17.499,17.5,17.499s17.5-7.834,17.5-17.499
	C41.218,53.092,33.383,45.255,23.718,45.255z M28.351,62.682h-3.03c0,4.843,0,10.807,0,10.807h-4.492c0,0,0-5.903,0-10.807h-2.135
	v-3.816h2.135v-2.472c0-1.77,0.84-4.532,4.533-4.532l3.326,0.013v3.706c0,0-2.022,0-2.415,0c-0.393,0-0.951,0.197-0.951,1.038v2.247
	h3.423L28.351,62.682z"/>
<path fill="#00ACDE" d="M105.459,45.254c-9.666,0-17.5,7.835-17.5,17.5c0,9.666,7.835,17.5,17.5,17.5s17.5-7.834,17.5-17.5
	C122.959,53.09,115.125,45.254,105.459,45.254z M111.561,72.436c-0.941,0.441-1.794,0.754-2.557,0.933
	c-0.764,0.179-1.589,0.268-2.476,0.268c-1.008,0-1.602-0.126-2.376-0.379c-0.774-0.255-1.434-0.62-1.98-1.088
	c-0.548-0.472-0.926-0.974-1.138-1.503c-0.211-0.53-0.316-1.299-0.316-2.308v-7.727h-2.993v-3.12
	c0.865-0.28,1.869-0.684,2.485-1.209c0.62-0.526,1.114-1.156,1.487-1.893c0.374-0.734,0.632-1.67,0.772-2.808h3.134v5.098h5.094
	v3.932h-5.094v5.651c0,1.278-0.017,2.015,0.119,2.376c0.135,0.361,0.472,0.736,0.84,0.952c0.488,0.291,1.044,0.439,1.672,0.439
	c1.116,0,2.225-0.364,3.329-1.088V72.436z"/>
</svg>
