<?xml version="1.0" encoding="utf-8"?>
<!-- Generator: Adobe Illustrator 17.0.0, SVG Export Plug-In . SVG Version: 6.00 Build 0)  -->
<!DOCTYPE svg PUBLIC "-//W3C//DTD SVG 1.1//EN" "http://www.w3.org/Graphics/SVG/1.1/DTD/svg11.dtd">
<svg version="1.1" id="Layer_1" xmlns="http://www.w3.org/2000/svg" xmlns:xlink="http://www.w3.org/1999/xlink" x="0px" y="0px"
	 width="94px" height="34px" viewBox="0 0 94 34" enable-background="new 0 0 94 34" xml:space="preserve">
<g>
	<path fill="#C12D21" d="M44.761,15.497c0.319,0,0.588-0.126,0.797-0.364c0.327-0.372,0.471-0.983,0.386-1.632
		c-0.153-1.16-0.981-2.124-1.846-2.15l-0.035-0.001c-0.306,0-0.58,0.125-0.788,0.363c-0.323,0.368-0.459,0.95-0.373,1.597
		c0.152,1.159,0.997,2.16,1.845,2.186H44.761z"/>
	<path fill="#C12D21" d="M45.706,18.992c-0.085-0.058-0.174-0.118-0.264-0.18c-0.267-0.082-0.55-0.125-0.84-0.128h-0.036
		c-1.333,0-2.502,0.808-2.502,1.729c0,1.001,1.001,1.786,2.28,1.786c1.686,0,2.541-0.581,2.541-1.728
		c0-0.109-0.013-0.221-0.039-0.333C46.731,19.691,46.323,19.413,45.706,18.992z"/>
	<path fill="#C12D21" d="M47.089,3.921c-6.903,0-12.5,5.596-12.5,12.499c0,6.904,5.597,12.5,12.5,12.5c6.903,0,12.5-5.597,12.5-12.5
		C59.588,9.517,53.992,3.921,47.089,3.921z M45.951,23.222c-0.498,0.144-1.036,0.217-1.601,0.217c-0.628,0-1.233-0.072-1.797-0.215
		c-1.092-0.275-1.899-0.798-2.275-1.47c-0.162-0.291-0.245-0.601-0.245-0.922c0-0.331,0.08-0.666,0.235-0.998
		c0.598-1.275,2.174-2.131,3.92-2.131c0.018,0,0.034,0,0.051-0.001c-0.142-0.249-0.211-0.508-0.211-0.78
		c0-0.136,0.018-0.274,0.054-0.414c-1.831-0.043-3.201-1.383-3.201-3.151c0-1.249,0.998-2.464,2.425-2.957
		c0.427-0.147,0.863-0.223,1.291-0.223h3.915c0.133,0,0.251,0.086,0.293,0.213c0.042,0.127-0.004,0.266-0.113,0.345l-0.875,0.634
		c-0.053,0.038-0.116,0.058-0.181,0.058h-0.313c0.405,0.485,0.642,1.176,0.642,1.954c0,0.858-0.434,1.67-1.223,2.287
		c-0.61,0.475-0.635,0.605-0.635,0.877c0.008,0.149,0.433,0.636,0.901,0.967c1.093,0.773,1.499,1.53,1.499,2.795
		C48.506,21.629,47.504,22.772,45.951,23.222z M54.796,16.505c0,0.17-0.139,0.308-0.308,0.308h-2.225v2.226
		c0,0.17-0.138,0.308-0.308,0.308h-0.634c-0.171,0-0.308-0.138-0.308-0.308v-2.226h-2.226c-0.169,0-0.307-0.138-0.307-0.308v-0.634
		c0-0.17,0.138-0.308,0.307-0.308h2.226v-2.225c0-0.171,0.138-0.308,0.308-0.308h0.634c0.17,0,0.308,0.138,0.308,0.308v2.225h2.225
		c0.17,0,0.308,0.139,0.308,0.308V16.505z"/>
</g>
<path fill="#315D99" d="M16.718,3.922c-6.903,0-12.5,5.598-12.5,12.5c0,6.903,5.597,12.499,12.5,12.499s12.5-5.596,12.5-12.499
	C29.218,9.519,23.622,3.922,16.718,3.922z M20.027,16.369h-2.164c0,3.459,0,7.719,0,7.719h-3.209c0,0,0-4.217,0-7.719h-1.525v-2.725
	h1.525v-1.766c0-1.264,0.6-3.237,3.238-3.237l2.375,0.009v2.647c0,0-1.445,0-1.725,0c-0.281,0-0.68,0.141-0.68,0.742v1.605h2.445
	L20.027,16.369z"/>
<path fill="#00ACDE" d="M77.459,3.921c-6.904,0-12.5,5.597-12.5,12.5c0,6.905,5.596,12.5,12.5,12.5c6.904,0,12.5-5.596,12.5-12.5
	C89.959,9.518,84.363,3.921,77.459,3.921z M81.817,23.337c-0.672,0.315-1.281,0.538-1.827,0.666
	c-0.546,0.128-1.135,0.191-1.769,0.191c-0.72,0-1.144-0.09-1.697-0.271c-0.553-0.182-1.025-0.443-1.414-0.777
	c-0.392-0.337-0.661-0.696-0.813-1.074c-0.151-0.379-0.226-0.928-0.226-1.649v-5.519h-2.138v-2.229
	c0.618-0.2,1.335-0.489,1.775-0.864c0.443-0.376,0.796-0.826,1.062-1.352c0.267-0.524,0.451-1.193,0.551-2.006h2.239v3.642h3.639
	v2.809H77.56v4.036c0,0.913-0.012,1.44,0.085,1.697c0.096,0.258,0.337,0.525,0.6,0.68c0.348,0.208,0.746,0.313,1.194,0.313
	c0.797,0,1.589-0.26,2.378-0.777V23.337z"/>
</svg>
