<svg xmlns="http://www.w3.org/2000/svg" width="94" height="34"><g fill="#C12D21"><path d="M44.761 15.497c.319 0 .588-.126.797-.364.327-.372.471-.983.386-1.632-.153-1.16-.981-2.124-1.846-2.15l-.035-.001c-.306 0-.58.125-.788.363-.323.368-.459.95-.373 1.597.152 1.159.997 2.16 1.845 2.186h.014zM45.706 18.992l-.264-.18c-.267-.082-.55-.125-.84-.128h-.036c-1.333 0-2.502.808-2.502 1.729 0 1.001 1.001 1.786 2.28 1.786 1.686 0 2.541-.581 2.541-1.728 0-.109-.013-.221-.039-.333-.115-.447-.523-.725-1.14-1.146zM47.089 3.921c-6.903 0-12.5 5.596-12.5 12.499 0 6.904 5.597 12.5 12.5 12.5s12.5-5.597 12.5-12.5c-.001-6.903-5.597-12.499-12.5-12.499zm-1.138 19.301c-.498.144-1.036.217-1.601.217-.628 0-1.233-.072-1.797-.215-1.092-.275-1.899-.798-2.275-1.47-.162-.291-.245-.601-.245-.922 0-.331.08-.666.235-.998.598-1.275 2.174-2.131 3.92-2.131l.051-.001c-.142-.249-.211-.508-.211-.78 0-.136.018-.274.054-.414-1.831-.043-3.201-1.383-3.201-3.151 0-1.249.998-2.464 2.425-2.957.427-.147.863-.223 1.291-.223h3.915c.133 0 .251.086.293.213.042.127-.004.266-.113.345l-.875.634c-.053.038-.116.058-.181.058h-.313c.405.485.642 1.176.642 1.954 0 .858-.434 1.67-1.223 2.287-.61.475-.635.605-.635.877.008.149.433.636.901.967 1.093.773 1.499 1.53 1.499 2.795-.001 1.322-1.003 2.465-2.556 2.915zm8.845-6.717c0 .17-.139.308-.308.308h-2.225v2.226c0 .17-.138.308-.308.308h-.634c-.171 0-.308-.138-.308-.308v-2.226h-2.226c-.169 0-.307-.138-.307-.308v-.634c0-.17.138-.308.307-.308h2.226v-2.225c0-.171.138-.308.308-.308h.634c.17 0 .308.138.308.308v2.225h2.225c.17 0 .308.139.308.308v.634z"/></g><path fill="#315D99" d="M16.718 3.922c-6.903 0-12.5 5.598-12.5 12.5 0 6.903 5.597 12.499 12.5 12.499s12.5-5.596 12.5-12.499c0-6.903-5.596-12.5-12.5-12.5zm3.309 12.447h-2.164v7.719h-3.209v-7.719h-1.525v-2.725h1.525v-1.766c0-1.264.6-3.237 3.238-3.237l2.375.009v2.647h-1.725c-.281 0-.68.141-.68.742v1.605h2.445l-.28 2.725z"/><path fill="#00ACDE" d="M77.459 3.921c-6.904 0-12.5 5.597-12.5 12.5 0 6.905 5.596 12.5 12.5 12.5s12.5-5.596 12.5-12.5c0-6.903-5.596-12.5-12.5-12.5zm4.358 19.416c-.672.315-1.281.538-1.827.666s-1.135.191-1.769.191c-.72 0-1.144-.09-1.697-.271-.553-.182-1.025-.443-1.414-.777-.392-.337-.661-.696-.813-1.074-.151-.379-.226-.928-.226-1.649v-5.519h-2.138v-2.229c.618-.2 1.335-.489 1.775-.864.443-.376.796-.826 1.062-1.352.267-.524.451-1.193.551-2.006h2.239v3.642h3.639v2.809h-3.639v4.036c0 .913-.012 1.44.085 1.697.096.258.337.525.6.68.348.208.746.313 1.194.313.797 0 1.589-.26 2.378-.777v2.484z"/></svg>